<?xml version="1.0" encoding="utf-8"?>
<!-- Generator: Adobe Illustrator 24.1.2, SVG Export Plug-In . SVG Version: 6.00 Build 0)  -->
<svg version="1.1" id="Ebene_2_1_" xmlns="http://www.w3.org/2000/svg" xmlns:xlink="http://www.w3.org/1999/xlink" x="0px" y="0px"
	 viewBox="0 0 172.5 259.9" style="enable-background:new 0 0 172.5 259.9;" xml:space="preserve">
<style type="text/css">
	.st0{fill:#F2A81D;}
	.st1{fill:#F25D27;}
	.st2{fill:#03A696;}
	.st3{fill:none;stroke:#F2A81D;stroke-width:11;stroke-miterlimit:10;}
</style>
<path class="st0" d="M86.6,190.6c-11.3,0-27.2-17.5-27.5-0.4c-1.2,55.5,19.9,64.3,16.6,31.1c0,0,4.5,38.6,10.9,38.6
	s10.9-38.6,10.9-38.6c-3.3,33.3,17.7,24.4,16.6-31.1C113.8,173.1,97.9,190.6,86.6,190.6z"/>
<path class="st1" d="M127.6,117.1c20.5,0,56,61.2,41.6,77.1c-9.5,10.4-23.3-6.1-49.9-5.6L127.6,117.1z"/>
<path class="st1" d="M44.9,117.1c-20.5,0-56,61.2-41.6,77.1c9.5,10.4,23.3-6.1,49.9-5.6L44.9,117.1z"/>
<path class="st2" d="M82.6,1.3c1.8-1.8,4.7-1.8,6.5,0c0,0,0,0,0,0c44.7,45.2,55.8,121.5,37.3,182.4c-2.2,7.2-15.3,12.5-40.5,12.5
	s-38.4-5.3-40.6-12.5C26.8,122.9,37.9,46.6,82.6,1.3z"/>
<circle class="st3" cx="85.8" cy="84.3" r="18.9"/>
</svg>
