<svg xmlns="http://www.w3.org/2000/svg" viewBox="0 0 136.62 187.73"><defs><style>.cls-1{fill:#f2a81d;}.cls-2{fill:#fff;}.cls-3{fill:#03a696;}.cls-4{fill:none;stroke:#04b2d9;stroke-linecap:round;stroke-miterlimit:10;stroke-width:8px;}</style></defs><g id="Ebene_2" data-name="Ebene 2"><rect class="cls-1" y="9.26" width="136.62" height="178.47" rx="12"/><rect class="cls-2" x="12.32" y="17.77" width="111.98" height="161.46" rx="1.02"/><path class="cls-3" d="M160.61,50.79V46.58a3.35,3.35,0,0,0-3.34-3.34H126.2a3.35,3.35,0,0,0-3.34,3.34v4.21H109.61a4.7,4.7,0,0,0-4.68,4.68V63a4.7,4.7,0,0,0,4.68,4.69h64.24A4.7,4.7,0,0,0,178.54,63V55.47a4.7,4.7,0,0,0-4.69-4.68Z" transform="translate(-73.42 -43.24)"/></g><g id="Ebene_1" data-name="Ebene 1"><line class="cls-4" x1="114.51" y1="63.21" x2="22.11" y2="63.21"/><line class="cls-4" x1="114.51" y1="77.33" x2="22.11" y2="77.33"/><line class="cls-4" x1="114.51" y1="91.44" x2="22.11" y2="91.44"/><line class="cls-4" x1="114.51" y1="49.1" x2="22.11" y2="49.1"/><line class="cls-4" x1="114.51" y1="119.66" x2="22.11" y2="119.66"/><line class="cls-4" x1="114.51" y1="133.78" x2="22.11" y2="133.78"/><line class="cls-4" x1="114.51" y1="147.89" x2="22.11" y2="147.89"/><line class="cls-4" x1="114.51" y1="105.55" x2="22.11" y2="105.55"/></g></svg>