<svg xmlns="http://www.w3.org/2000/svg" viewBox="0 0 219.43 212.88"><defs><style>.cls-1{fill:#f25d27;}.cls-2{fill:#03a696;}.cls-3{fill:#04b2d9;}</style></defs><g id="Ebene_2" data-name="Ebene 2"><rect class="cls-1" x="123.56" y="84.13" width="18.02" height="178.36" rx="9.01" transform="translate(119.4 -87.45) rotate(45)"/><path class="cls-2" d="M259.6,80.65a46.53,46.53,0,1,1-34.37-34.37L192.64,78.86a12,12,0,0,0,0,17l17.4,17.4a12,12,0,0,0,17,0Z" transform="translate(-41.98 -44.47)"/><path class="cls-2" d="M181.1,124.77a47,47,0,0,1,44.24-79l-.23,1a46,46,0,1,0,34,34l1-.24a47,47,0,0,1-79,44.24Z" transform="translate(-41.98 -44.47)"/><path class="cls-2" d="M209.69,113.59l-17.4-17.4a12.52,12.52,0,0,1,0-17.68l32.58-32.59.71.71L193,79.22a11.5,11.5,0,0,0,0,16.26l17.4,17.4a11.52,11.52,0,0,0,16.26,0L259.24,80.3l.71.7-32.58,32.59A12.52,12.52,0,0,1,209.69,113.59Z" transform="translate(-41.98 -44.47)"/></g><g id="Ebene_1" data-name="Ebene 1"><path class="cls-2" d="M191.23,213.41h0c-3,3-8.09,2.81-13.7-2.81L73.14,106.22c-.83-.84-1-5.93,2-8.93h0c3-3,8.09-2.81,8.93-2L188.43,199.7C194,205.32,194.23,210.41,191.23,213.41Z" transform="translate(-41.98 -44.47)"/><rect class="cls-1" x="171.2" y="162.17" width="37.41" height="99.81" rx="7.8" transform="translate(-136.32 151.93) rotate(-45)"/><path class="cls-3" d="M87.1,101.6l-7.68,7.68c-4,4-8.39,6.13-12.68,1.83L44.59,80.92c-4.3-4.3-2.85-9.2,1.15-13.19l-.19.18c4-4,9.08-5.63,13.38-1.33l30,22.33C93.23,93.21,91.09,97.6,87.1,101.6Z" transform="translate(-41.98 -44.47)"/></g></svg>